<svg
   version="1.1"
   id="Capa_1"
   x="0px"
   y="0px"
   viewBox="0 0 552.74091 954.95654"
   xml:space="preserve"
   sodipodi:docname="c89ab09cd2ce526ac10c765bd3960b77.svg"
   width="552.74091"
   height="954.95654"
   xmlns:inkscape="http://www.inkscape.org/namespaces/inkscape"
   xmlns:sodipodi="http://sodipodi.sourceforge.net/DTD/sodipodi-0.dtd"
   xmlns="http://www.w3.org/2000/svg"
   xmlns:svg="http://www.w3.org/2000/svg"><defs
   id="defs15" /><sodipodi:namedview
   id="namedview13"
   pagecolor="#ffffff"
   bordercolor="#666666"
   borderopacity="1.0"
   inkscape:pageshadow="2"
   inkscape:pageopacity="0.0"
   inkscape:pagecheckerboard="0" />
<style
   type="text/css"
   id="style2">
	.st0{fill:#A4122C;}
</style>
<g
   transform="matrix(0.1,0,0,-0.1,-252.85761,994.99657)"
   id="g10">
	<path
   class="st0"
   d="m 2535.6,9886.4 c 599.7,-539.1 374.7,-2727.5 410,-3471.1 -38.8,-2920.5 128.2,-2183.1 -240,-3874.9 235.6,2.7 709.5,1.8 945,5 -0.5,201.2 8.8,298 -96,495 -145.7,221.8 -130.2,614.9 -153,883 16.7,498.6 -29,4638 -9.1,5072.2 74,253.7 148.4,549.7 344,734.8 41,22 49,44 49,146 94.1,139.4 -603.7,31.7 -625,64.1 -15.3,-47 -708.7,77.7 -624.9,-54.1 z"
   id="path4" />
	<path
   class="st0"
   d="m 5606.8,9517.8 c -931,-387.8 -1626,-1353.1 -508.9,-2064 220.5,-155.9 472.4,-279.7 715.9,-395 238.2,-57.9 1.6,-287.4 -57,-403 -324.6,-600.9 -1433.7,-1888.6 -669,-2437 217.9,-245.6 180.7,-249.8 274.1,-125.1 179.7,638.9 328.5,1268.2 541,1890 87,204.3 167.6,746.6 355.9,810 441.3,-191.9 986.9,-931.6 1064,-1459 259.7,-1005.4 -269.5,-2291.4 -1105,-2924 -750.8,-570.5 -1910.9,-374.1 -2727,-748.1 -329.1,-115 -651.9,-306.8 -770,-639.9 -91.4,-70.9 -61.9,36.8 -67,-289 -62,-830.2 1244,512.3 1533,630 547.1,301.1 1294.8,304.9 1869,611.1 2404.3,925.7 2712.1,3508.2 536,4896.9 -454.4,167.3 -133.8,602.1 -4.9,907 189,432.3 403.8,808.6 660,1195 74.8,134.8 338.3,399.8 375,497 -110.8,94.2 -100.8,22.6 -1030,49 -525.1,1.1 -968.1,0.1 -985.1,-1.9 z m 558.9,-406.9 c 588.9,-34 355.7,-1359.9 -75.9,-1848.1 -171.3,-37.8 -615.1,275.3 -781.9,391 -206.1,143 -389.1,560.6 -234.9,834 171.4,399.5 513.7,727.7 1092.7,623.1 z"
   id="path6" />
	<path
   d="m 2835.6,410.4 c 0,-5 7,-10 16,-10 29.2,3.7 -15,36 -16,10 z"
   id="path8" />
</g>
</svg>
